<svg xmlns="http://www.w3.org/2000/svg" xmlns:xlink="http://www.w3.org/1999/xlink" version="1.1" width="1000" height="1000" viewBox="0 0 1000 1000" xml:space="preserve">
<desc>Created with Fabric.js 3.5.0</desc>
<defs>
</defs>
<rect x="0" y="0" width="100%" height="100%" fill="rgba(255,255,255,0)"/>
<g transform="matrix(1 0 0 1 500 500)" style="" id="613216">
		
<path xml:space="preserve" font-family="Cookie" font-size="1275" font-style="normal" font-weight="normal" style="stroke: none; stroke-width: 0; stroke-dasharray: none; stroke-linecap: butt; stroke-dashoffset: 0; stroke-linejoin: miter; stroke-miterlimit: 4; is-custom-font: none; font-file-url: none; fill: rgb(255,255,255); fill-rule: nonzero; opacity: 1; white-space: pre;" d="M18.49-337.70L18.49-337.70Q26.14-338.97 59.93-338.97Q93.71-338.97 141.53-326.86Q189.34-314.75 234.60-287.33Q279.86-259.92 307.28-207.01Q334.69-154.10 334.69-81.42L334.69-81.42Q334.69 38.43 241.61 112.38Q148.54 186.33-4.46 186.33L-4.46 186.33Q-4.46 434.95-92.44 434.95L-92.44 434.95Q-151.09 434.95-151.09 385.23L-151.09 385.23Q-151.09 369.93-135.79 343.15Q-120.49 316.38-114.11 281.95Q-107.74 247.53-103.91 171.03L-103.91 171.03Q-156.19 154.45-156.19 125.13Q-156.19 95.80-129.41 95.80L-129.41 95.80Q-115.39 95.80-101.36 99.63L-101.36 99.63Q-84.79-240.80-78.41-276.50L-78.41-276.50Q-151.09-258.65-198.90-217.85Q-246.71-177.05-246.71-120.95L-246.71-120.95Q-246.71-89.07-260.10-71.22Q-273.49-53.37-293.89-53.37L-293.89-53.37Q-332.14-53.37-332.14-96.72L-332.14-96.72Q-332.14-182.15-256.27-243.98Q-180.41-305.82-66.94-327.50L-66.94-327.50Q-42.71-409.10 0.64-409.10L0.64-409.10Q18.49-409.10 18.49-337.70ZM239.06-45.72L239.06-45.72Q239.06-160.47 173.40-221.03Q107.74-281.60 14.66-285.42L14.66-285.42Q-4.46-59.75-4.46 139.15L-4.46 139.15Q13.39 141.70 23.59 141.70L23.59 141.70Q130.69 141.70 184.88 86.88Q239.06 32.05 239.06-45.72Z"/></g>
</svg>